<svg xmlns="http://www.w3.org/2000/svg" width="170mm" height="140mm" viewBox="0 0 602.362 496.063"><path d="M58.813 910.617C201.558 888.08 332.46 857.625 519.485 650.3c2.055-2.278 9.97 4.746 9.97 4.746-94.842 222.43-310.247 308.6-478.457 275.05" style="fill:#ffd42a;fill-rule:evenodd;stroke:#000;stroke-width:0;stroke-linecap:butt;stroke-linejoin:miter;stroke-miterlimit:4;stroke-dasharray:none;stroke-opacity:1" transform="translate(0 -556.3)"/><path d="M538.775 659.234c2.02 9.258-.795 22.795-4.04 34.346-64.248 228.666-207.987 308.716-438.406 270.72" style="fill:none;fill-rule:evenodd;stroke:#000;stroke-width:0;stroke-linecap:butt;stroke-linejoin:miter;stroke-miterlimit:4;stroke-dasharray:none;stroke-opacity:1" transform="translate(0 -556.3)"/><path d="M58.953 910.283c-14.474 15.73-10.045 8.77-6.061 29.774 10.607 9.693 35.019 26.793 48.487 24.244M514.521 654.95l26.106-49.368c10.675-2.481 22.03-6.26 23.229 9.325l-27.835 52.11" style="fill:none;fill-rule:evenodd;stroke:#000;stroke-width:0;stroke-linecap:butt;stroke-linejoin:miter;stroke-miterlimit:4;stroke-dasharray:none;stroke-opacity:1" transform="translate(0 -556.3)"/><path d="M524.734 660.365c12.226 10.49 12.658 6.44 12.658 6.44M543.072 605.582c6.52 20.08 13.041 13.182 19.561 9.325" style="fill:none;fill-rule:evenodd;stroke:#000;stroke-width:0;stroke-linecap:butt;stroke-linejoin:miter;stroke-miterlimit:4;stroke-dasharray:none;stroke-opacity:1" transform="translate(0 -556.3)"/><path d="M161.334 970.775c-19.528-1.568-62.71-7.144-70.117-9.053-9.725-2.508-37.97-21.406-37.97-25.406 0-2.501 1.823-2.865 9.597-1.914 23.17 2.833 85.623 3.691 104.77 1.44 100.388-11.805 192.245-57.322 263.777-130.707 37.477-38.448 64.482-76.895 87.832-125.048 5.388-11.112 9.957-20.513 10.154-20.893.197-.379 2.364-.053 4.816.726 4.105 1.302 4.363 2.317 3.264 12.81-2.39 22.831-25.51 87.69-44.39 124.535-48.55 94.742-122.969 151.092-222.799 168.706-23.586 4.161-83.845 6.819-108.934 4.804z" style="fill:#fd5;stroke-width:0;stroke-miterlimit:4;stroke-dasharray:none" transform="translate(0 -556.3)"/><path d="M94.664 934.78c-1.111-.466-9.07-1.446-17.688-2.18l-15.668-1.332L65.452 926c2.286-2.906 3.876-7.497 3.546-10.237-.59-4.894-.075-5.068 34.214-11.542 79.37-14.984 135.413-33.92 191.462-64.689C357.81 804.872 406.52 766.6 475.9 697.137c38.441-38.487 46.38-45.545 49.037-43.602 2.779 2.032 1.478 5.69-10.52 29.588-22.923 45.66-48.467 81.96-82.285 116.932-42.486 43.938-83.413 73.076-136.448 97.146-36.793 16.698-70.256 26.966-109.096 33.476-17.645 2.958-87.242 6.064-91.924 4.103z" style="fill:#fd5;stroke-width:0;stroke-miterlimit:4;stroke-dasharray:none" transform="translate(0 -556.3)"/><path d="M123.216 965.974c-15.409-2.144-31.012-4.886-34.673-6.095-6.097-2.012-35.295-21.175-35.295-23.165 0-.47 23.41-.325 52.022.324 57.013 1.293 76.908-.509 116.673-10.565 58.039-14.678 115.594-42.628 163.645-79.47 16.667-12.779 57.325-52.498 73.142-71.452 19.309-23.14 44.43-62.063 58.149-90.1 10.026-20.488 12.789-24.613 16.162-24.13 3.421.49 3.977 1.871 3.49 8.664-1.567 21.822-20.57 77.37-40.813 119.303-29.557 61.225-74.145 110.963-126.293 140.879-27.865 15.985-62.652 28.241-98.995 34.876-29.387 5.365-111.602 5.885-147.214.931z" style="fill:#fc0;stroke:#fc0;stroke-width:0;stroke-miterlimit:4;stroke-dasharray:none" transform="translate(0 -556.3)"/><path d="m525.883 659.426-9.061-5.8 12.448-23.647c10.164-19.308 12.786-22.777 14.29-18.904 2.42 6.236 8.851 11.198 12.061 9.307 4.3-2.534 2.75 1.441-9.186 23.556l-11.49 21.288-9.062-5.8z" style="fill:#502d16;stroke-width:0;stroke-miterlimit:4;stroke-dasharray:none" transform="translate(0 -556.3)"/><path d="M544.876 619.486c-8.76-7.73-5.77-14.055 6.077-12.852 7.875.8 10.989 3.1 10.989 8.118 0 8.195-9.999 10.968-17.066 4.734z" style="fill:#28170b;stroke-width:0;stroke-miterlimit:4;stroke-dasharray:none" transform="translate(0 -556.3)"/><path d="M66.68 919.735c.93 7.697-3.654 16.073-4.724 24.914-.425 3.507-10.513-1.592-13.693-11.179-3.18-9.586-2.204-20.123 2.179-23.536 4.382-3.412 14.853-1.655 16.238 9.801z" style="fill:#28170b;fill-rule:evenodd;stroke:#000;stroke-width:0;stroke-linecap:butt;stroke-linejoin:miter;stroke-miterlimit:4;stroke-dasharray:none;stroke-opacity:1" transform="translate(0 -556.3)"/></svg>