<svg xmlns="http://www.w3.org/2000/svg" xmlns:xlink="http://www.w3.org/1999/xlink" width="120" height="120"><defs><filter id="l" width="1.284" height="1.208" x="-.142" y="-.104" style="color-interpolation-filters:sRGB"><feGaussianBlur stdDeviation="9.968"/></filter><filter id="m" width="2.132" height="1.829" x="-.566" y="-.415" style="color-interpolation-filters:sRGB"><feGaussianBlur stdDeviation="56.59"/></filter><filter id="k" width="1.409" height="4.019" x="-.204" y="-1.51" style="color-interpolation-filters:sRGB"><feGaussianBlur stdDeviation="7.088"/></filter><filter id="f" width="1.614" height="1.46" x="-.307" y="-.23" style="color-interpolation-filters:sRGB"><feGaussianBlur stdDeviation="19.382"/></filter><filter id="n" width="2.555" height="2.626" x="-.778" y="-.813" style="color-interpolation-filters:sRGB"><feGaussianBlur stdDeviation="81.086"/></filter><filter id="o" width="1.36" height="1.72" x="-.18" y="-.36" style="color-interpolation-filters:sRGB"><feGaussianBlur stdDeviation=".315"/></filter><filter id="O" width="5.234" height="9.836" x="-2.117" y="-4.418"><feGaussianBlur stdDeviation=".753"/></filter><filter id="N" width="5.237" height="9.806" x="-2.119" y="-4.403"><feGaussianBlur stdDeviation=".753"/></filter><filter id="M" width="5.234" height="9.837" x="-2.117" y="-4.419"><feGaussianBlur stdDeviation=".753"/></filter><filter id="L" width="5.234" height="9.833" x="-2.117" y="-4.417"><feGaussianBlur stdDeviation=".753"/></filter><filter id="K" width="5.238" height="9.799" x="-2.119" y="-4.4"><feGaussianBlur stdDeviation=".753"/></filter><filter id="J" width="5.236" height="9.822" x="-2.118" y="-4.411"><feGaussianBlur stdDeviation=".753"/></filter><filter id="I" width="5.236" height="9.819" x="-2.118" y="-4.41"><feGaussianBlur stdDeviation=".753"/></filter><filter id="H" width="5.234" height="9.834" x="-2.117" y="-4.417"><feGaussianBlur stdDeviation=".753"/></filter><filter id="G" width="5.239" height="9.79" x="-2.12" y="-4.395"><feGaussianBlur stdDeviation=".753"/></filter><filter id="F" width="5.234" height="9.84" x="-2.117" y="-4.42"><feGaussianBlur stdDeviation=".753"/></filter><filter id="E" width="5.235" height="9.828" x="-2.118" y="-4.414"><feGaussianBlur stdDeviation=".753"/></filter><filter id="D" width="5.234" height="9.838" x="-2.117" y="-4.419"><feGaussianBlur stdDeviation=".753"/></filter><filter id="C" width="5.236" height="9.819" x="-2.118" y="-4.41"><feGaussianBlur stdDeviation=".753"/></filter><filter id="B" width="5.234" height="9.841" x="-2.117" y="-4.42"><feGaussianBlur stdDeviation=".753"/></filter><filter id="A" width="5.234" height="9.841" x="-2.117" y="-4.42"><feGaussianBlur stdDeviation=".753"/></filter><filter id="z" width="5.234" height="9.839" x="-2.117" y="-4.42"><feGaussianBlur stdDeviation=".753"/></filter><filter id="y" width="5.234" height="9.84" x="-2.117" y="-4.42"><feGaussianBlur stdDeviation=".753"/></filter><filter id="x" width="5.237" height="9.809" x="-2.119" y="-4.404"><feGaussianBlur stdDeviation=".753"/></filter><filter id="w" width="5.234" height="9.834" x="-2.117" y="-4.417"><feGaussianBlur stdDeviation=".753"/></filter><filter id="v" width="5.236" height="9.818" x="-2.118" y="-4.409"><feGaussianBlur stdDeviation=".753"/></filter><filter id="u" width="5.238" height="9.8" x="-2.119" y="-4.4"><feGaussianBlur stdDeviation=".753"/></filter><filter id="t" width="5.336" height="9.055" x="-2.168" y="-4.027"><feGaussianBlur stdDeviation=".753"/></filter><filter id="s" width="5.286" height="9.399" x="-2.143" y="-4.199"><feGaussianBlur stdDeviation=".753"/></filter><filter id="r" width="5.234" height="9.841" x="-2.117" y="-4.42"><feGaussianBlur stdDeviation=".753"/></filter><filter id="q" width="5.234" height="9.841" x="-2.117" y="-4.42"><feGaussianBlur stdDeviation=".753"/></filter><filter id="p" width="5.234" height="9.841" x="-2.117" y="-4.42"><feGaussianBlur stdDeviation=".753"/></filter><linearGradient id="e"><stop offset="0" style="stop-color:#003f00;stop-opacity:1"/><stop offset="1" style="stop-color:#003f00;stop-opacity:0"/></linearGradient><linearGradient id="d"><stop offset="0" style="stop-color:#060;stop-opacity:1"/><stop offset="1" style="stop-color:#00ac00;stop-opacity:0"/></linearGradient><linearGradient id="c"><stop offset="0" style="stop-color:#1a1a1a;stop-opacity:1"/><stop offset="1" style="stop-color:#999;stop-opacity:1"/></linearGradient><linearGradient id="b"><stop offset="0" style="stop-color:#004900;stop-opacity:1"/><stop offset=".198" style="stop-color:#007a00;stop-opacity:1"/><stop offset=".453" style="stop-color:green;stop-opacity:.67058824"/><stop offset="1" style="stop-color:green;stop-opacity:0"/></linearGradient><linearGradient id="a"><stop offset="0" style="stop-color:#f60;stop-opacity:1"/><stop offset=".542" style="stop-color:#260f00;stop-opacity:1"/><stop offset="1" style="stop-color:#000;stop-opacity:1"/></linearGradient><linearGradient xlink:href="#a" id="j" x1="312.025" x2="360.292" y1="423.913" y2="422.721" gradientTransform="matrix(.07397 -.00054 .00204 .09723 31.719 911.514)" gradientUnits="userSpaceOnUse"/><linearGradient xlink:href="#b" id="h" x1="386.838" x2="257.362" y1="858.539" y2="632.828" gradientTransform="matrix(.20312 0 0 .19454 -10.858 864.647)" gradientUnits="userSpaceOnUse"/><linearGradient xlink:href="#c" id="i" x1="382.466" x2="167.648" y1="915.056" y2="784.455" gradientUnits="userSpaceOnUse"/><linearGradient xlink:href="#b" id="Q" x1="386.838" x2="257.362" y1="858.539" y2="632.828" gradientTransform="matrix(.20312 0 0 .19454 -10.723 864.658)" gradientUnits="userSpaceOnUse"/><linearGradient xlink:href="#d" id="P" x1="326.383" x2="327.037" y1="487.535" y2="496.837" gradientTransform="matrix(.20262 .01529 -.01433 .21615 -3.889 848.567)" gradientUnits="userSpaceOnUse"/></defs><g style="display:inline" transform="translate(0 -932.362)"><path d="M504.973 755.446c-20.888 39.052-60.457 93.74-93.192 97.528-22.888 2.648-20.854-31.79-6.502-73.688 8.717-25.445 13.39-56.846 44.037-93.184 22.693-26.906 64-42.96 86-31.433 27.566 14.442-4.335 52.156-30.343 100.777z" style="fill:#00b400;fill-opacity:1;stroke:none;filter:url(#f)" transform="matrix(.20312 0 0 .19454 -10.858 864.647)"/><use xlink:href="#g" width="744.094" height="1052.362" transform="translate(-304.835 17.554)"/><path d="M45.282 954.497a30.53 30.53 0 0 0-6.075.724c-18.483 4.15-29.186 24.999-23.905 46.573 5.187 21.19 23.863 35.193 42.04 31.752 17.61 3.751 29.098-.474 42.947-29.406 9.643-20.142-2.615-42.666-20.788-47.923-6.813-1.97-14.507.892-20.464 1.24-5.957.349-9.033-3.032-13.755-2.96z" style="opacity:.80078125;fill:url(#h);fill-opacity:1;stroke:none"/><path d="M473.214 861.985c-16.182 16.784-86.554 20.565-175.134 36.268-97.501 17.285-185.886-23.247-186.061-36.268-.348-25.927 80.856-38.78 180.598-38.78 99.741 0 202.036 16.545 180.597 38.78z" style="fill:url(#i);fill-opacity:1;stroke:none;filter:url(#filter6965)" transform="matrix(.18187 .0231 -.0319 .16375 22.357 881.548)"/><path d="M45.282 954.497a30.53 30.53 0 0 0-6.075.724c-18.483 4.15-29.186 24.999-23.905 46.573 5.187 21.19 23.863 35.193 42.04 31.752 17.61 3.751 29.098-.474 42.947-29.406 9.643-20.142-2.615-42.666-20.788-47.923-6.813-1.97-14.507.892-20.464 1.24-5.957.349-9.033-3.032-13.755-2.96z" style="opacity:.84203126;fill:#00ce00;fill-opacity:1;stroke:none"/><path d="M60.689 942.864c.814-.977 2.863.532 1.837 1.73-1.026 1.2-2.694 2.837-3.401 5.708-.95 3.856-.837 8.661-.837 8.661-.101.163-.98.38-1.204-.095 0 0 .175-5.337.856-8.687.89-4.381 1.935-6.34 2.749-7.316z" style="fill:url(#j);fill-opacity:1;stroke:none"/><path d="M383.766 493.246c1.926 4.542-20.614-2.456-43.235-2.456-22.622 0-42.573 4.086-39.596-.281 2.558-3.754 16.587-7 39.208-7 22.622 0 41.85 5.555 43.623 9.737z" style="fill:#003f00;fill-opacity:1;stroke:none;filter:url(#k)" transform="matrix(.20312 0 0 .19454 -10.858 864.647)"/><path d="M336.048 609.86c-24.267 56.324-24.577 100.1-56.148 118.794-44.13 26.131-94.117-65.193-94.117-127.167 0-61.973 48.821-93.545 100.426-93.545 51.605 0 74.334 45.06 49.839 101.917z" style="fill:#0dd900;fill-opacity:1;stroke:none;filter:url(#l)" transform="matrix(.22285 -.07623 .06988 .2431 -63.236 869.918)"/><path d="M433.44 646.236c-13.815 87.651-94.016 109.066-165.68 98.997-135.354-74.344-91.308-238.677 56.032-232.708 54.907 4.506 119.49 71.266 109.648 133.711z" style="fill:#f9f9f9;fill-opacity:1;stroke:none;filter:url(#m)" transform="matrix(.0878 -.02945 .02753 .09392 -9.006 922.051)"/><path d="M433.44 646.236c-13.815 87.651-94.016 109.066-165.68 98.997-135.354-74.344-91.308-238.677 56.032-232.708 54.907 4.506 119.49 71.266 109.648 133.711z" style="opacity:.98000004;fill:#f9f9f9;fill-opacity:1;stroke:none;filter:url(#n)" transform="matrix(.04356 -.01214 .01366 .0387 56.873 940.374)"/><ellipse id="g" cx="418.31" cy="551.02" rx="2.102" ry="1.051" style="opacity:.7109375;fill:#ff0;fill-opacity:1;stroke:none;filter:url(#o)" transform="matrix(.20312 0 0 .19454 -10.858 864.647)"/><use xlink:href="#g" width="744.094" height="1052.362" style="filter:url(#p)" transform="translate(-51.56 33.686)"/><use xlink:href="#g" width="744.094" height="1052.362" transform="translate(-37.856 26.126)"/><use xlink:href="#g" width="744.094" height="1052.362" style="filter:url(#q)" transform="translate(-54.301 46.306)"/><use xlink:href="#g" width="744.094" height="1052.362" transform="translate(18.555 23.903)"/><use xlink:href="#g" width="744.094" height="1052.362" transform="translate(-10.111 12.31)"/><use xlink:href="#g" width="744.094" height="1052.362" transform="translate(-5.87 17.407)"/><use xlink:href="#g" width="744.094" height="1052.362" transform="translate(-12.699 23.068)"/><use xlink:href="#g" width="744.094" height="1052.362" transform="translate(-22.405 23.438)"/><use xlink:href="#g" width="744.094" height="1052.362" transform="translate(4.426 30.099)"/><use xlink:href="#g" width="744.094" height="1052.362" style="filter:url(#r)" transform="translate(-44.75 35.913)"/><use xlink:href="#g" width="744.094" height="1052.362" transform="translate(-51.742 21.02)"/><use xlink:href="#g" width="744.094" height="1052.362" transform="translate(-49.957 26.006)"/><use xlink:href="#g" width="744.094" height="1052.362" transform="matrix(.9923 .11857 -.12926 .9923 134.537 21.744)"/><use xlink:href="#g" width="744.094" height="1052.362" transform="matrix(.99204 .1206 -.13147 .99204 135.31 15.408)"/><use xlink:href="#g" width="744.094" height="1052.362" transform="matrix(.96724 .24315 -.26509 .96724 258.255 29.325)"/><use xlink:href="#g" width="744.094" height="1052.362" style="filter:url(#s)" transform="matrix(.98135 .18411 -.20072 .98135 194.006 37.081)"/><use xlink:href="#g" width="744.094" height="1052.362" style="filter:url(#t)" transform="matrix(.96414 -.25419 .27712 .96414 -275.914 86.137)"/><use xlink:href="#g" width="744.094" height="1052.362" transform="matrix(.99906 -.04159 .04534 .99906 -83.004 24.752)"/><use xlink:href="#g" width="744.094" height="1052.362" style="filter:url(#u)" transform="matrix(.99845 .0533 -.0581 .99845 24.943 29.898)"/><use xlink:href="#g" width="744.094" height="1052.362" style="filter:url(#v)" transform="matrix(.99913 .03996 -.04356 .99913 10.372 30.33)"/><use xlink:href="#g" width="744.094" height="1052.362" transform="matrix(.99965 .02535 -.02764 .99965 -4.788 23.451)"/><use xlink:href="#g" width="744.094" height="1052.362" style="filter:url(#w)" transform="matrix(.99974 -.02177 .02373 .99974 -55.628 33.846)"/><use xlink:href="#g" width="744.094" height="1052.362" style="filter:url(#x)" transform="matrix(.99876 .04766 -.05196 .99876 22.003 31.471)"/><use xlink:href="#g" width="744.094" height="1052.362" transform="matrix(.99989 .01437 -.01567 .99989 -7.044 8.612)"/><use xlink:href="#g" width="744.094" height="1052.362" transform="matrix(1 .00222 -.00242 1 -20.967 8.142)"/><use xlink:href="#g" width="744.094" height="1052.362" transform="matrix(.99918 -.03882 .04232 .99918 -65.17 34.564)"/><use xlink:href="#g" width="744.094" height="1052.362" style="filter:url(#y)" transform="rotate(-.443 5253.644 4189.05) skewX(.038)"/><use xlink:href="#g" width="744.094" height="1052.362" style="filter:url(#z)" transform="rotate(.619 -3747.212 -1032.521) skewX(-.053)"/><use xlink:href="#g" width="744.094" height="1052.362" style="filter:url(#A)" transform="matrix(1 -.00155 .0017 1 -22.18 46.013)"/><use xlink:href="#g" width="744.094" height="1052.362" style="filter:url(#B)" transform="matrix(1 .0017 -.00186 1 -26.608 49.358)"/><use xlink:href="#g" width="744.094" height="1052.362" style="filter:url(#C)" transform="matrix(.99917 .03904 -.04256 .99917 8.72 44.377)"/><use xlink:href="#g" width="744.094" height="1052.362" style="filter:url(#D)" transform="matrix(.9999 .01363 -.01486 .9999 -21.51 42.768)"/><use xlink:href="#g" width="744.094" height="1052.362" style="filter:url(#E)" transform="matrix(.9995 .03014 -.03285 .9995 -5.726 38.747)"/><use xlink:href="#g" width="744.094" height="1052.362" style="filter:url(#F)" transform="rotate(-.417 6266.116 504.87) skewX(.036)"/><use xlink:href="#g" width="744.094" height="1052.362" style="filter:url(#G)" transform="matrix(.99805 .05979 -.06518 .99805 67.508 42.741)"/><use xlink:href="#g" width="744.094" height="1052.362" style="filter:url(#H)" transform="matrix(.99975 -.02149 .02342 .99975 -18.533 45.352)"/><use xlink:href="#g" width="744.094" height="1052.362" style="filter:url(#I)" transform="matrix(.99917 -.03893 .04244 .99917 -31.993 37.708)"/><use xlink:href="#g" width="744.094" height="1052.362" transform="matrix(.9983 -.05598 .06103 .9983 -55.736 8.673)"/><use xlink:href="#g" width="744.094" height="1052.362" transform="rotate(-.311 1562.758 13.734) skewX(.027)"/><use xlink:href="#g" width="744.094" height="1052.362" transform="matrix(.99987 .01544 -.01683 .99987 18.739 9.633)"/><use xlink:href="#g" width="744.094" height="1052.362" style="filter:url(#J)" transform="matrix(.99927 .03653 -.03983 .99927 32.268 31.746)"/><use xlink:href="#g" width="744.094" height="1052.362" style="filter:url(#K)" transform="matrix(.9984 .05417 -.05905 .9984 44.935 47.122)"/><use xlink:href="#g" width="744.094" height="1052.362" transform="matrix(1 .0014 -.00152 1 23.552 6.84)"/><use xlink:href="#g" width="744.094" height="1052.362" transform="matrix(.9991 .04078 -.04446 .9991 67.282 13.76)"/><use xlink:href="#g" width="744.094" height="1052.362" transform="matrix(.99821 .05723 -.0624 .99821 72.335 18.93)"/><use xlink:href="#g" width="744.094" height="1052.362" transform="matrix(.99808 .05936 -.06472 .99808 7.985 4.659)"/><use xlink:href="#g" width="744.094" height="1052.362" transform="rotate(-.347 1996.836 10807.623) skewX(.03)"/><use xlink:href="#g" width="744.094" height="1052.362" transform="matrix(.9992 .0384 -.04187 .9992 27.355 7.531)"/><use xlink:href="#g" width="744.094" height="1052.362" transform="translate(-28.114 14.44)"/><use xlink:href="#g" width="744.094" height="1052.362" style="filter:url(#L)" transform="matrix(.9997 -.02344 .02556 .9997 -33.841 56.07)"/><use xlink:href="#g" width="744.094" height="1052.362" style="filter:url(#M)" transform="matrix(.99986 -.01608 .01753 .99986 -19.682 47.594)"/><use xlink:href="#g" width="744.094" height="1052.362" style="filter:url(#N)" transform="matrix(.99868 .04919 -.05362 .99868 24.58 47.287)"/><use xlink:href="#g" width="744.094" height="1052.362" style="filter:url(#O)" transform="matrix(.9998 .01911 -.02083 .9998 6.884 41.931)"/><path d="M65.848 965c.213 2.707-4.08-1.763-8.664-2.11-4.584-.344-8.786 1.76-8.012-.77.665-2.174 3.634-3.873 8.218-3.527 4.583.345 8.262 3.914 8.458 6.407z" style="fill:url(#P);fill-opacity:1;stroke:none"/><path d="M45.417 954.508a30.53 30.53 0 0 0-6.075.723c-18.483 4.15-29.186 25-23.905 46.574 5.187 21.19 23.863 35.193 42.04 31.752 17.61 3.75 29.098-.474 42.948-29.406 9.642-20.143-2.616-42.666-20.789-47.923-6.813-1.97-14.507.891-20.464 1.24-5.957.349-9.032-3.032-13.755-2.96z" style="opacity:.80078125;fill:url(#Q);fill-opacity:1;stroke:none"/></g></svg>