<svg xmlns="http://www.w3.org/2000/svg" xmlns:xlink="http://www.w3.org/1999/xlink" width="109.81" height="116.508" viewBox="0 0 102.947 109.226"><defs><linearGradient id="f"><stop offset="0" style="stop-color:#dcd730;stop-opacity:1"/><stop offset=".262" style="stop-color:#dcd730;stop-opacity:1"/><stop offset=".594" style="stop-color:#dcd730;stop-opacity:1"/><stop offset=".637" style="stop-color:#dcd730;stop-opacity:1"/><stop offset=".74" style="stop-color:#b0d84a;stop-opacity:1"/><stop offset="1" style="stop-color:#aed44c;stop-opacity:1"/></linearGradient><linearGradient id="e"><stop offset="0" style="stop-color:#08af00;stop-opacity:1"/><stop offset="1" style="stop-color:#20831b;stop-opacity:1"/></linearGradient><linearGradient id="d"><stop offset="0" style="stop-color:#faff88;stop-opacity:1"/><stop offset=".423" style="stop-color:#faff88;stop-opacity:1"/><stop offset=".698" style="stop-color:#dee376;stop-opacity:1"/><stop offset="1" style="stop-color:#deff93;stop-opacity:1"/></linearGradient><linearGradient id="c"><stop offset="0" style="stop-color:#fff;stop-opacity:1"/><stop offset="1" style="stop-color:#fff;stop-opacity:.51612902"/></linearGradient><linearGradient xlink:href="#d" id="g" x1="73.743" x2="103.037" y1="1077.393" y2="1092.242" gradientTransform="translate(-21.089 -87.49)" gradientUnits="userSpaceOnUse"/><linearGradient xlink:href="#e" id="m" x1="132.944" x2="154.852" y1="990.772" y2="990.772" gradientTransform="translate(-51.401 -9.32)" gradientUnits="userSpaceOnUse"/><linearGradient xlink:href="#f" id="l" x1="8.141" x2="82.788" y1="53.382" y2="90.505" gradientUnits="userSpaceOnUse"/><pattern xlink:href="#a" id="h" patternTransform="matrix(.2815 .12948 -.3372 .73314 1.799 947.744)"/><pattern id="a" width="30.066" height="5.181" patternUnits="userSpaceOnUse"><path d="M7.597.061C5.079-.187 2.656.302-.01 1.788v1.273c2.783-1.63 5.183-2.009 7.482-1.781 2.298.228 4.497 1.081 6.781 1.938 4.567 1.713 9.551 3.458 15.813-.157l-.004-1.273c-6.44 3.709-10.816 1.982-15.371.273-2.278-.854-4.576-1.75-7.094-2z" style="fill:#000;stroke:none"/></pattern><pattern xlink:href="#b" id="j" patternTransform="matrix(.5 0 0 .575 2 947.75)"/><pattern xlink:href="#b" id="i" patternTransform="matrix(1.40865 0 0 1.86827 4 948)"/><pattern id="b" width="10" height="10" patternTransform="scale(10)" patternUnits="userSpaceOnUse"><circle cx="2.567" cy=".81" r=".45" style="fill:#000;stroke:none"/><circle cx="3.048" cy="2.33" r=".45" style="fill:#000;stroke:none"/><circle cx="4.418" cy="2.415" r=".45" style="fill:#000;stroke:none"/><circle cx="1.844" cy="3.029" r=".45" style="fill:#000;stroke:none"/><circle cx="6.08" cy="1.363" r=".45" style="fill:#000;stroke:none"/><circle cx="5.819" cy="4.413" r=".45" style="fill:#000;stroke:none"/><circle cx="4.305" cy="4.048" r=".45" style="fill:#000;stroke:none"/><circle cx="5.541" cy="3.045" r=".45" style="fill:#000;stroke:none"/><circle cx="4.785" cy="5.527" r=".45" style="fill:#000;stroke:none"/><circle cx="2.667" cy="5.184" r=".45" style="fill:#000;stroke:none"/><circle cx="7.965" cy="1.448" r=".45" style="fill:#000;stroke:none"/><circle cx="7.047" cy="5.049" r=".45" style="fill:#000;stroke:none"/><circle cx="4.34" cy=".895" r=".45" style="fill:#000;stroke:none"/><circle cx="7.125" cy=".34" r=".45" style="fill:#000;stroke:none"/><circle cx="9.553" cy="1.049" r=".45" style="fill:#000;stroke:none"/><circle cx="7.006" cy="2.689" r=".45" style="fill:#000;stroke:none"/><circle cx="8.909" cy="2.689" r=".45" style="fill:#000;stroke:none"/><circle cx="9.315" cy="4.407" r=".45" style="fill:#000;stroke:none"/><circle cx="7.82" cy="3.87" r=".45" style="fill:#000;stroke:none"/><circle cx="8.27" cy="5.948" r=".45" style="fill:#000;stroke:none"/><circle cx="7.973" cy="7.428" r=".45" style="fill:#000;stroke:none"/><circle cx="9.342" cy="8.072" r=".45" style="fill:#000;stroke:none"/><circle cx="8.206" cy="9.315" r=".45" style="fill:#000;stroke:none"/><circle cx="9.682" cy="9.475" r=".45" style="fill:#000;stroke:none"/><circle cx="9.688" cy="6.186" r=".45" style="fill:#000;stroke:none"/><circle cx="3.379" cy="6.296" r=".45" style="fill:#000;stroke:none"/><circle cx="2.871" cy="8.204" r=".45" style="fill:#000;stroke:none"/><circle cx="4.59" cy="8.719" r=".45" style="fill:#000;stroke:none"/><circle cx="3.181" cy="9.671" r=".45" style="fill:#000;stroke:none"/><circle cx="5.734" cy="7.315" r=".45" style="fill:#000;stroke:none"/><circle cx="6.707" cy="6.513" r=".45" style="fill:#000;stroke:none"/><circle cx="5.73" cy="9.67" r=".45" style="fill:#000;stroke:none"/><circle cx="6.535" cy="8.373" r=".45" style="fill:#000;stroke:none"/><circle cx="4.37" cy="7.154" r=".45" style="fill:#000;stroke:none"/><circle cx=".622" cy="7.25" r=".45" style="fill:#000;stroke:none"/><circle cx=".831" cy="5.679" r=".45" style="fill:#000;stroke:none"/><circle cx="1.257" cy="8.519" r=".45" style="fill:#000;stroke:none"/><circle cx="1.989" cy="6.877" r=".45" style="fill:#000;stroke:none"/><circle cx=".374" cy="3.181" r=".45" style="fill:#000;stroke:none"/><circle cx="1.166" cy="1.664" r=".45" style="fill:#000;stroke:none"/><circle cx="1.151" cy=".093" r=".45" style="fill:#000;stroke:none"/><circle cx="1.151" cy="10.093" r=".45" style="fill:#000;stroke:none"/><circle cx="1.302" cy="4.451" r=".45" style="fill:#000;stroke:none"/><circle cx="3.047" cy="3.763" r=".45" style="fill:#000;stroke:none"/></pattern><radialGradient xlink:href="#c" id="k" cx="29.293" cy="985.976" r="6.598" fx="29.293" fy="985.976" gradientTransform="matrix(.61598 .2845 -.3215 .6961 328.239 291.273)" gradientUnits="userSpaceOnUse"/></defs><g style="fill:#faff88;fill-opacity:1;stroke:red;stroke-width:.35433072;stroke-miterlimit:4;stroke-dasharray:none"><path d="M214.694 1047.772c-9.73-4.824-31.06 11.803-34.555 23.707-1.754 5.974-2.585 14.388-.483 21.369 2.686 8.922 9.363 16.141 16.43 19.808 2.745 1.424 9.515 4.955 12.39 5.683 9.763 2.473 20.981 3.337 30.07-6.049 3.74-3.862 7.908-12.97 8.931-18.073 1.652-8.233-.348-18.169-4.856-24.262-1.28-4.71.727-3.811 5.545-15.185.96-2.266 3.837-8.234 2.711-12.945-.759-3.177-1.683-6.486-3.756-8.789-1.003-1.114-7.508-4.403-12.644-3.718-2.29.305-8.608 1.673-13.292 7.062-2.402 2.764-3.811 6.971-6.49 11.392z" style="fill:#faff88;fill-opacity:1;fill-rule:evenodd;stroke:red;stroke-width:.35433072;stroke-linecap:butt;stroke-linejoin:miter;stroke-miterlimit:4;stroke-dasharray:none;stroke-opacity:1" transform="translate(-173.598 -1016.832)"/><path d="M245.761 1031.991c2.942-4.412 5.73-8.952 11.922-10.658 3.31-1.496-.731 3.947 3.556 5.434-7.877.589-9.35 4.021-12.55 6.687z" style="fill:#faff88;fill-opacity:1;fill-rule:evenodd;stroke:red;stroke-width:.35433072;stroke-linecap:butt;stroke-linejoin:round;stroke-miterlimit:4;stroke-dasharray:none;stroke-opacity:1" transform="translate(-173.598 -1016.832)"/><path d="M253.232 1029.675s5.043.793 6.647 2.541c1.039 1.132 1.783 3.361 2.806 4.507 1.731 1.94 3.676 1.24 5.672 2.908 2.658 2.22 4.186 10.757 4.15 13.983-.027 2.529-.897 6.27-2.381 10.048-2.558 6.511-7.21 13.132-10.205 13.386-2.02-5.06-.641-15.566-5.557-20.627-2.02-1.267 4-15.202 4.895-18.541.38-1.42-1.045-2.927-2.218-3.813-1.51-1.14-6.303-2.295-6.303-2.295.675-.855 1.587-1.474 2.494-2.097z" style="fill:#faff88;fill-opacity:1;fill-rule:evenodd;stroke:red;stroke-width:.35433072;stroke-linecap:butt;stroke-linejoin:miter;stroke-miterlimit:4;stroke-dasharray:none;stroke-opacity:1" transform="translate(-173.598 -1016.832)"/></g><path d="M31.441 1043.018s1.96-.095 3.758-.054c.95.022 3.295.7 4.1-.52.573-.87 1.05-3.766.34-5.612 4.2-.724 9.192-.584 11.121-2.905 7.765-9.342 3.736-24.332 8.839-35.356 4.308-9.306 14.084-15.238 17.223-25 1.211-3.767.707-11.87.707-11.87 4.248 2.577 4.42 9.01 4.42 13.006-3.086 10.637-10.053 18.946-8.713 21.34 3.251 5.713 6.11 11.555 5.808 17.93-.446 9.45-2.263 17.797-6.818 23.485-3.773 4.712-8.339 9.76-14.142 10.102-6.43.38-15.977 1.027-26.643-4.546z" style="fill:url(#g);fill-opacity:1;fill-rule:evenodd;stroke:none;stroke-width:.35433072;stroke-linecap:butt;stroke-linejoin:miter;stroke-miterlimit:4;stroke-dasharray:none;stroke-opacity:1" transform="translate(-4.598 -944.832)"/><path d="M76.871 959.99c2.942-4.413 5.73-8.953 11.922-10.659 3.31-1.496-.731 3.947 3.556 5.434-7.877.589-9.35 4.021-12.55 6.687z" style="fill:url(#h);fill-opacity:1;fill-rule:evenodd;stroke:#f60;stroke-width:.35433072;stroke-linecap:butt;stroke-linejoin:round;stroke-miterlimit:4;stroke-dasharray:none;stroke-opacity:1" transform="translate(-4.598 -944.832)"/><path d="M31.441 1043.018s1.96-.095 3.758-.054c.95.022 3.295.7 4.1-.52.573-.87 1.05-3.766.34-5.612 4.2-.724 9.192-.584 11.121-2.905 7.765-9.342 3.736-24.332 8.839-35.355 4.308-9.307 14.084-15.239 17.223-25.002 1.211-3.766.707-11.869.707-11.869 4.248 2.577 4.42 9.01 4.42 13.006-3.086 10.637-10.053 18.946-8.713 21.34 3.251 5.713 6.11 11.555 5.808 17.93-.446 9.45-2.263 17.797-6.818 23.485-3.773 4.712-8.339 9.76-14.142 10.102-6.431.38-15.977 1.027-26.643-4.546z" style="fill:url(#i);fill-opacity:1;fill-rule:evenodd;stroke:none;stroke-width:.35433072;stroke-linecap:butt;stroke-linejoin:miter;stroke-miterlimit:4;stroke-dasharray:none;stroke-opacity:1;opacity:.122" transform="translate(-4.598 -944.832)"/><path d="M84.347 957.765s5.043.793 6.647 2.54c1.039 1.132 1.63 3.52 2.806 4.508 1.466 1.233 3.913 1.878 5.849 3.614 2.968 2.663 3.689 10.197 3.62 13.365-.145 6.766-7.501 22.944-12.233 23.346-2.02-5.06-.641-15.567-5.557-20.627-2.02-1.268 4-15.202 4.895-18.542.38-1.42-1.044-2.926-2.218-3.812-1.51-1.14-6.302-2.295-6.302-2.295.675-.855 1.586-1.474 2.493-2.097z" style="fill:url(#j);fill-opacity:1;fill-rule:evenodd;stroke:#0300ff;stroke-width:.35433072;stroke-linecap:butt;stroke-linejoin:miter;stroke-miterlimit:4;stroke-dasharray:none;stroke-opacity:1" transform="translate(-4.598 -944.832)"/><path d="M31.776 981.926c2.529-.873 7.442-.343 5.711 2.293 0 0-2.83 2.493-4.02 3.89-1.424 1.673-3.79 4.889-3.79 4.889-2.717 2.16-4.284-.014-3.922-1.913-.038-1.95.87-5.243 2.527-6.604 1.483-1.218 2.54-2.226 3.494-2.555z" style="fill:url(#k);fill-rule:evenodd;stroke:#dad375;stroke-width:1.0629921;stroke-linecap:butt;stroke-linejoin:miter;stroke-miterlimit:4;stroke-dasharray:none;stroke-opacity:1;fill-opacity:1" transform="translate(-4.598 -944.832)"/><path d="M33.35 1033.835c-.619-.588-1.978-.476-1.666 1.168-.033.995.064 3.095 1.669 2.905.452.534-1.264.414-1.919.53-.505.53-1.095 1.297.066 2.075.54-.013 1.296.1 1.81-.053.712-.211 1.04-.288 1.8.025.646.859 1.055.887 1.992 1.662.725-.127 1.631.035 1.556-1.373-.291-.817-1.055-1.28-1.652-1.868-.098-.5.755-.391 1.133-.472 1.586-1.174.118-2.345-.612-1.841-.504.166-1.554 1.05-2.015.624-2.568-.05-1.69-2.626-2.162-3.382z" style="color:#000;font-style:normal;font-variant:normal;font-weight:400;font-stretch:normal;font-size:medium;line-height:normal;font-family:sans-serif;text-indent:0;text-align:start;text-decoration:none;text-decoration-line:none;text-decoration-style:solid;text-decoration-color:#000;letter-spacing:normal;word-spacing:normal;text-transform:none;direction:ltr;block-progression:tb;writing-mode:lr-tb;baseline-shift:baseline;text-anchor:start;white-space:normal;clip-rule:nonzero;display:inline;overflow:visible;visibility:visible;opacity:1;isolation:auto;mix-blend-mode:normal;color-interpolation:sRGB;color-interpolation-filters:linearRGB;solid-color:#000;solid-opacity:1;fill:#5a0000;fill-opacity:1;fill-rule:evenodd;stroke:none;stroke-width:1.77165353;stroke-linecap:butt;stroke-linejoin:miter;stroke-miterlimit:4;stroke-dasharray:none;stroke-dashoffset:0;stroke-opacity:1;color-rendering:auto;image-rendering:auto;shape-rendering:auto;text-rendering:auto;enable-background:accumulate" transform="translate(-4.598 -944.832)"/><path d="M89.645 2.313c-5.732.99-10.002 5.486-12.918 10.257-6.194-3.591-14.052-3.34-20.09.455-6.093 3.313-9.157 9.817-12.555 15.516-7.84-2.032-15.363 2.824-21.256 7.453C15.628 41.65 9.86 49.564 8.514 58.922c-1.552 10.783 1.77 22.65 9.492 30.486 5.68 6.13 12.707 9.986 20.271 13.127 9.857 2.944 22.544 3.118 30.723-3.95 6.16-5.321 9.15-14.172 10.867-21.968 1.864-8.466.04-17.802-4.894-25.006-.977-5.025 4.175-8.877 5.271-13.634 2.582-5.3 4.6-11.483 2.254-17.254-1.335-2.486-3.035-7.33 1.563-5.262 6.267.586 5.617 6.406 3.164 10.475-1.005 4.246-4.483 9.18-2.332 13.357 2.172 2.343 3.347 7.35 3.636 11.121.721 2.925-.025 7.95 2.37 9.647 5.185-1.408 7.218-7.413 9.556-11.696 2.868-6.063 4.743-12.968 2.66-19.592-.281-5.435-3.953-9.026-8.77-10.517-1.605-3.46-4.125-6.65-8.24-6.961 1.937-1.668 5.218-.468 6.948-2.068.461-1.631-2.53-1.385-2.065-3.18-.1-1.295.63-3.468-1.343-3.734Zm-.42 1.89c-.426 2.757 2.061 4.97-2.063 4.955-1.231-.073-2.328.684-3.35 1.617-1.505.065-1.684 1.115-1.992 1.942-1.185 1.096-2.315 1.776-3.504.758 2.582-4.12 5.947-8.122 10.909-9.272zm-22.536 7.68c4.83.247 9.882 2.791 11.403 8.133 1.95 4.31 2.002 9.04.033 13.35-1.787 5.312-4.924 9.41-7.066 14.532-1.125 4.693 3.42 8.878 4.51 13.221 2.011 8.025 1.249 15.633-2.282 23.111-3.34 7.075-8.237 13.415-16.144 15.125-9.205 1.992-18.68.164-26.723-4.453-11.712-5.04-21.065-17.273-20.455-30.26.34-7.242 2.578-15.464 7.574-20.927 5.758-6.297 13.409-12.276 22.066-13.758 2.294-.393 4.447.37 5.94.775 1.133.308 2.895 1.437 4.365 2.047 2.003.831 4.002 2.827 4.701 3.707.712-1.709-2.6-4.744-4.021-5.343-2.189-.923-2.069-2.393-1.404-4.44 1.132-3.488 4.45-11.29 11.615-13.572 1.72-.635 4.05-1.14 5.888-1.248zm17.905.404c.142.005.305.024.492.06 2.194.171 4.028 1.16 5.352 2.762 1.845 2.236 3.435 5.065 6.212 5.822 2.568.887 4.064 3.358 4.817 5.858-.901-.651-2.2-1.103-3.108-1.413-1.268-.434-2.724-.678-3.968-.673-.138-.492-.434-.959-.588-1.488-.42-1.449-.957-3.682-1.489-3.772-.505.162.428 2.763.783 3.972.13.446.085.928.202 1.356-1.393.229-2.536.948-3.531 1.817-.577.503-.575.7-1.096 1.256.942-2.652 1.78-4.894 2.402-7.766.158-1.313-1.298-2.649-2.02-3.414-1.683-1.786-4.293-2.092-5.44-3.06.01-.67-.014-1.353.98-1.317zm10.044 13.254c1.378.007 2.613.203 3.765.778 1.09.545 2.8 1.298 3.53 1.855.317 1.486.538 3.21.691 4.694-.656-.646-2.17-1.253-2.903-1.733-.603-.396-1.13-.67-1.825-.824-.538-.119-1.037-.172-1.622-.077a20.02 20.02 0 0 0-1.237-3.515c-.102-.217-.279-.787-.399-1.178Zm-1.076.076c.155.524.342 1.192.512 1.555.481 1.023.87 2.286 1.133 3.346-2.208.623-3.967 1.826-5.548 3.22-1.274 1.122-1.99 1.907-3.201 2.873.198-2.23.732-4.136 1.387-6.179.815-1.18 1.467-2.274 2.432-3.138.946-.826 2.087-1.515 3.285-1.677zm3.608 5.428c.728.047 1.404.335 2.096.789.95.623 2.508 1.8 3.457 2.78.054.483.195 1.282.26 1.726-.192 1.553-.716 3.361-1.095 4.889-.587-.747-1.67-2.12-2.273-2.55-.968-.69-1.95-1.01-2.92-1.074.184-2.21.132-4.392-.273-6.525.257-.04.505-.05.748-.035zm-1.781.29c.384 2.052.425 4.165.234 6.331-1.409.264-2.679 1.115-3.89 2.155-1.005.862-1.668 1.448-2.56 2.742-.633-1.85-1.129-3.442-2.338-4.706 1.482-1.093 1.91-2.376 3.306-3.607a13.786 13.786 0 0 1 5.248-2.914zm1.24 7.142c.877.04 1.728.366 2.6 1.11.593.507 1.687 2.012 2.313 2.95-.584 2.059-1.314 3.901-2.208 5.85-.24-.317-1.303-1.347-1.643-1.667-.587-.55-1.157-.92-2.412-1.1.262-1.073.512-2.143.725-3.208.25-1.255.483-2.693.625-3.935zm-1.121.132c-.137 1.124-.317 2.447-.547 3.596a77.535 77.535 0 0 1-.754 3.32c-1.08.055-1.937.81-2.706 1.566-.444.437-.562.418-.96.923-.376-1.454-.48-2.799-.845-4.156.944-1.475 1.434-2.502 2.457-3.463 1.051-.987 2.21-1.505 3.355-1.786zm-1.574 7.86c-.527 2.06-1.088 4.301-1.622 6.396-.69-.053-.88 0-1.32.337-.089-1.147-.283-3.015-.37-4.122.617-.794.792-1.008 1.404-1.61a3.798 3.798 0 0 1 1.908-1zm1.093-.01c1.138.138 1.883.475 2.347.91.382.358 1.198 1.427 1.578 1.9-.922 1.866-2.079 4.096-3.26 5.796-.1-.143-.744-1.132-.868-1.264-.355-.381-.94-.479-1.538-.627.541-2.114 1.208-4.608 1.741-6.715zm-2.98 7.252c-.237.962-.546 2.563-.752 3.528-.323-.412-.238-1.857-.367-2.725-.003-.495.3-.574.45-.713.232-.215.26-.095.669-.09zm1.076.281c.4.092.68.275.924.535.156.168 1.053 1.047 1.185 1.277-.351.476-1.096.913-1.467 1.372-.386.319-1.61 1.037-1.896 1.116.22-1.045.994-3.252 1.254-4.3z" style="color:#000;font-style:normal;font-variant:normal;font-weight:400;font-stretch:normal;font-size:medium;line-height:normal;font-family:sans-serif;text-indent:0;text-align:start;text-decoration:none;text-decoration-line:none;text-decoration-style:solid;text-decoration-color:#000;letter-spacing:normal;word-spacing:normal;text-transform:none;direction:ltr;block-progression:tb;writing-mode:lr-tb;baseline-shift:baseline;text-anchor:start;white-space:normal;clip-rule:nonzero;display:inline;overflow:visible;visibility:visible;opacity:1;isolation:auto;mix-blend-mode:normal;color-interpolation:sRGB;color-interpolation-filters:linearRGB;solid-color:#000;solid-opacity:1;fill:url(#l);fill-opacity:1;fill-rule:evenodd;stroke:none;stroke-width:2.83464575;stroke-linecap:butt;stroke-linejoin:miter;stroke-miterlimit:4;stroke-dasharray:none;stroke-dashoffset:0;stroke-opacity:1;color-rendering:auto;image-rendering:auto;shape-rendering:auto;text-rendering:auto;enable-background:accumulate" transform="translate(-4.598 1.23)"/><path d="M83.994 957.676s5.396.882 7 2.63c1.039 1.131 1.63 3.519 2.806 4.507 1.466 1.233 3.913 1.878 5.849 3.614 2.968 2.663 3.689 10.197 3.62 13.365-.145 6.766-7.501 22.944-12.233 23.346-2.02-5.06-.641-15.567-5.557-20.627-2.02-1.268 4-15.202 4.895-18.542.38-1.42-1.486-2.838-2.66-3.724-1.51-1.14-5.86-2.383-5.86-2.383.675-.855 1.233-1.562 2.14-2.186z" style="fill:url(#m);fill-opacity:1;fill-rule:evenodd;stroke:#0300ff;stroke-width:.35433072;stroke-linecap:butt;stroke-linejoin:miter;stroke-miterlimit:4;stroke-dasharray:none;stroke-opacity:1" transform="translate(-4.598 -944.832)"/><path d="M76.871 959.99c2.942-4.413 5.73-8.953 11.922-10.659 3.31-1.496-.731 3.947 3.556 5.434-7.877.589-9.35 4.021-12.55 6.687z" style="fill:#8a3a00;fill-opacity:1;fill-rule:evenodd;stroke:#f60;stroke-width:.35433072;stroke-linecap:butt;stroke-linejoin:round;stroke-miterlimit:4;stroke-dasharray:none;stroke-opacity:1" transform="translate(-4.598 -944.832)"/><path d="M86.087 957.372c1.936-1.668 5.217-.468 6.947-2.069.461-1.63-2.53-1.384-2.064-3.18-.101-1.294.63-3.467-1.344-3.734-5.732.991-10.001 5.487-12.918 10.258-.013.52-.377 1.073-.132 1.447.71 1.079 2.828 1.586 4.388 2.724-.04-.883.07-2.143 2.015-1.843l.616-1.295c.4-.972.122-1.325.98-1.316.142.005.306.024.492.06zm3.119-7.092c-.425 2.757 1.999 4.97-2.125 4.955-1.231-.073-2.266.684-3.287 1.617-1.505.065-1.997 1.114-2.305 1.942-1.185 1.096-2.002 1.776-3.191.757 2.581-4.119 5.947-8.121 10.908-9.271z" style="color:#000;font-style:normal;font-variant:normal;font-weight:400;font-stretch:normal;font-size:medium;line-height:normal;font-family:sans-serif;text-indent:0;text-align:start;text-decoration:none;text-decoration-line:none;text-decoration-style:solid;text-decoration-color:#000;letter-spacing:normal;word-spacing:normal;text-transform:none;direction:ltr;block-progression:tb;writing-mode:lr-tb;baseline-shift:baseline;text-anchor:start;white-space:normal;clip-rule:nonzero;display:inline;overflow:visible;visibility:visible;opacity:1;isolation:auto;mix-blend-mode:normal;color-interpolation:sRGB;color-interpolation-filters:linearRGB;solid-color:#000;solid-opacity:1;fill:maroon;fill-opacity:1;fill-rule:evenodd;stroke:none;stroke-width:2.83464575;stroke-linecap:butt;stroke-linejoin:miter;stroke-miterlimit:4;stroke-dasharray:none;stroke-dashoffset:0;stroke-opacity:1;color-rendering:auto;image-rendering:auto;shape-rendering:auto;text-rendering:auto;enable-background:accumulate" transform="translate(-4.598 -944.832)"/><path d="M84 961.473c6.267.586 5.617 6.407 3.164 10.475-1.004 4.246-4.482 9.18-2.332 13.358 2.173 2.342 3.347 7.349 3.637 11.12.72 2.925-.026 7.95 2.37 9.647 5.184-1.408 7.218-7.412 9.556-11.695 2.868-6.063 4.743-12.968 2.66-19.592-.281-5.436-3.954-9.026-8.77-10.518-1.605-3.46-4.125-6.65-8.24-6.96-4.014-1.075-5.628 3.594-2.045 4.165zm1.026-3.113c2.194.171 4.028 1.159 5.351 2.762 1.846 2.236 3.436 5.064 6.213 5.822 2.568.886 4.064 3.357 4.817 5.857-.902-.65-2.201-1.102-3.109-1.413-1.267-.434-2.723-.678-3.968-.672-.138-.493-.434-.96-.587-1.488-.42-1.449-.957-3.683-1.489-3.772-.505.161.428 2.763.783 3.972.13.445.085.927.202 1.356-1.393.228-2.537.947-3.532 1.816-.576.504-.574.701-1.095 1.257.941-2.652 1.779-4.895 2.402-7.767.158-1.313-1.298-2.648-2.02-3.413-1.683-1.786-4.294-2.093-5.441-3.06.583-1.26.35-1.312 1.473-1.257zm9.552 13.193c1.377.007 2.613.204 3.764.779 1.09.545 2.801 1.297 3.531 1.854.317 1.487.538 3.21.691 4.695-.656-.647-2.17-1.253-2.903-1.734-.603-.395-1.13-.67-1.825-.824-.538-.118-1.038-.171-1.622-.076a20.019 20.019 0 0 0-1.237-3.516c-.102-.217-.279-.786-.4-1.178zm-1.076.077c.155.523.341 1.192.512 1.554.48 1.023.87 2.287 1.133 3.346-2.208.623-3.967 1.826-5.549 3.22-1.273 1.123-1.989 1.907-3.2 2.874.198-2.23.731-4.137 1.386-6.18.815-1.18 1.467-2.274 2.433-3.137.946-.827 2.086-1.516 3.285-1.677zm3.608 5.427c.728.048 1.404.336 2.095.79.95.622 2.509 1.799 3.457 2.78.054.482.196 1.282.262 1.726-.193 1.552-.717 3.36-1.096 4.888-.587-.746-1.67-2.12-2.273-2.55-.968-.69-1.95-1.009-2.92-1.073.184-2.21.132-4.393-.273-6.525.256-.041.505-.051.748-.036zm-1.782.291c.384 2.052.425 4.164.235 6.33-1.409.265-2.679 1.115-3.891 2.156-1.005.862-1.667 1.448-2.558 2.741-.634-1.85-1.13-3.441-2.339-4.706 1.481-1.092 1.91-2.376 3.305-3.606a13.785 13.785 0 0 1 5.248-2.915zm1.24 7.141c.878.041 1.73.366 2.6 1.111.594.507 1.687 2.012 2.314 2.95-.584 2.058-1.315 3.901-2.209 5.85-.24-.317-1.302-1.348-1.643-1.667-.586-.55-1.156-.92-2.411-1.101a78.32 78.32 0 0 0 .725-3.207c.25-1.255.483-2.694.625-3.936zm-1.12.133c-.137 1.123-.318 2.447-.547 3.596a77.532 77.532 0 0 1-.754 3.32c-1.08.055-1.937.81-2.707 1.566-.444.437-.562.418-.96.922-.375-1.454-.48-2.798-.845-4.156.945-1.474 1.435-2.501 2.458-3.462 1.051-.987 2.21-1.505 3.355-1.786zm-1.575 7.86c-.526 2.059-1.087 4.3-1.62 6.396-.692-.054-.88 0-1.322.337-.088-1.147-.282-3.016-.37-4.123.618-.794.793-1.008 1.404-1.609a3.798 3.798 0 0 1 1.908-1.001zm1.094-.01c1.138.138 1.883.474 2.347.91.382.357 1.198 1.426 1.577 1.899-.921 1.867-2.078 4.097-3.26 5.797-.1-.144-.744-1.132-.867-1.265-.356-.38-.94-.478-1.538-.627.541-2.113 1.208-4.608 1.741-6.714zm-2.98 7.252c-.237.962-.547 2.563-.752 3.528-.324-.413-.238-1.857-.367-2.725-.003-.496.3-.574.45-.713.231-.216.26-.096.669-.09zm1.076.28c.4.093.68.275.924.536.156.167 1.052 1.046 1.184 1.277-.35.476-1.096.913-1.466 1.371-.386.32-1.61 1.038-1.897 1.116.221-1.044.995-3.251 1.255-4.3z" style="color:#000;font-style:normal;font-variant:normal;font-weight:400;font-stretch:normal;font-size:medium;line-height:normal;font-family:sans-serif;text-indent:0;text-align:start;text-decoration:none;text-decoration-line:none;text-decoration-style:solid;text-decoration-color:#000;letter-spacing:normal;word-spacing:normal;text-transform:none;direction:ltr;block-progression:tb;writing-mode:lr-tb;baseline-shift:baseline;text-anchor:start;white-space:normal;clip-rule:nonzero;display:inline;overflow:visible;visibility:visible;opacity:1;isolation:auto;mix-blend-mode:normal;color-interpolation:sRGB;color-interpolation-filters:linearRGB;solid-color:#000;solid-opacity:1;fill:green;fill-opacity:1;fill-rule:evenodd;stroke:none;stroke-width:.35433072;stroke-linecap:butt;stroke-linejoin:miter;stroke-miterlimit:4;stroke-dasharray:none;stroke-dashoffset:0;stroke-opacity:1;color-rendering:auto;image-rendering:auto;shape-rendering:auto;text-rendering:auto;enable-background:accumulate" transform="translate(-4.598 -944.832)"/></svg>