<svg xmlns="http://www.w3.org/2000/svg" viewBox="0 0 351.69 441.29"><defs><radialGradient id="a" cx="266.81" cy="258.69" r="57.578" gradientTransform="scale(.91784 1.0895)" gradientUnits="userSpaceOnUse"><stop offset="0" style="stop-color:#fff;stop-opacity:.28333"/><stop offset="1" style="stop-color:#fff;stop-opacity:0"/></radialGradient></defs><path d="M243.36 128.48C132.7 65.526-52.09 382.3 213.92 456.42c205.09 10.16 299.52-342.16 76.15-322.87-7.11 2.03-32.49 0-46.71-5.07z" style="stroke-linejoin:round;fill-rule:evenodd;stroke:#000;stroke-width:10;fill:#54007f" transform="translate(-72.149 -20.346)"/><path d="M256.56 125.43c-39.59-3.05 31.6 29.44 22.46 9.14 7.11-56.86 53.63-81.515 72.92-83.546 52.79-10.153 8.19-41.34-17.2-15.957-11.17 4.061-50.76 20.306-78.18 90.363z" style="stroke-linejoin:round;fill-rule:evenodd;stroke:#000;stroke-width:10;fill:#004e00" transform="translate(-72.149 -20.346)"/><path d="M138.79 369.11c2.03-9.14 27.41-196.98 100.51-219.31-7.1-12.19-11.17-16.25-26.4-12.19-92.39 49.75-93.4 227.43-74.11 231.5z" style="fill-rule:evenodd;stroke-width:1pt;fill-opacity:.1" transform="translate(-72.149 -20.346)"/><path d="M306.31 140.66c138.09 83.26-59.9 260.94-16.24 289.36 222.35-209.15 70.06-266.01 16.24-289.36z" style="fill-rule:evenodd;stroke-width:1pt;fill:#ffffe8;fill-opacity:.1" transform="translate(-72.149 -20.346)"/><path d="M289.05 212.75c-71.07-30.46-138.08 61.93-61.93 124.88 60.92 40.61 113.71-93.41 61.93-124.88z" style="fill-rule:evenodd;stroke-width:1pt;fill:url(#a)" transform="translate(-72.149 -20.346)"/><path d="M265.04 133.33c-.51-3.33 23.31-88.044 96.45-100.23 9.64 9.487-72.6 9.642-96.45 100.23z" style="fill-rule:evenodd;stroke-width:1pt;fill:#090;fill-opacity:.5" transform="translate(-72.149 -20.346)"/></svg>